<?xml version="1.0" encoding="UTF-8"?>
<!DOCTYPE svg PUBLIC "-//W3C//DTD SVG 1.1//EN" "http://www.w3.org/Graphics/SVG/1.1/DTD/svg11.dtd">
<!-- Creator: CorelDRAW X8 -->
<svg xmlns="http://www.w3.org/2000/svg" xml:space="preserve" width="89.2336mm" height="127.605mm" version="1.1" style="shape-rendering:geometricPrecision; text-rendering:geometricPrecision; image-rendering:optimizeQuality; fill-rule:evenodd; clip-rule:evenodd"
viewBox="0 0 31499 45044"
 xmlns:xlink="http://www.w3.org/1999/xlink">
 <defs>
  <style type="text/css">
   <![CDATA[
    .str0 {stroke:#FEFEFE;stroke-width:176.496}
    .fil14 {fill:none}
    .fil0 {fill:#6D99E1}
    .fil2 {fill:#746844}
    .fil9 {fill:#9AA6B9}
    .fil11 {fill:#A4904E}
    .fil8 {fill:#ACBBD4}
    .fil3 {fill:#B66140}
    .fil13 {fill:#B9B4A8}
    .fil10 {fill:#BBA24B}
    .fil6 {fill:#C57B55}
    .fil5 {fill:#DC3A2C}
    .fil4 {fill:#ECBF92}
    .fil12 {fill:#F06A4F}
    .fil7 {fill:#F8D7B2}
    .fil1 {fill:#FAFAF9}
   ]]>
  </style>
 </defs>
 <g id="Capa_x0020_1">
  <metadata id="CorelCorpID_0Corel-Layer"/>
  <path class="fil0" d="M4404 27610c-215,-1052 -458,-1882 -583,-2971 -126,-1094 -272,-2209 -230,-3322l11643 -4c94,-409 117,-7735 63,-7929 -72,-56 -34,-43 -150,-91 -123,-50 -30,-20 -173,-53 -610,-140 -1901,-131 -2034,-1020 -52,-353 -20,-1397 94,-1664 226,-531 595,-143 625,-1092 -1021,-27 -913,-1003 -548,-1233 374,-236 482,31 710,-372 329,-581 845,-1602 2069,-1279 839,222 941,592 1222,1113l1025 2398c225,280 273,100 275,891 3,1361 85,1833 -1334,2099 -1010,190 -1046,-49 -1057,587 -47,2459 50,5123 -6,7644l129 -6 11651 11c122,1142 -169,3272 -394,4427l-686 2859c-86,305 -214,588 -325,928 113,0 90,-31 90,73l46 -100c4,-11 16,-37 22,-50l543 -1640c86,-349 185,-561 274,-890l338 -2062c59,-434 164,-593 162,-1075l71 -2255c-6,-1702 -112,-2973 -384,-4420 -235,-1246 -581,-2741 -1021,-3853 -121,-306 -173,-551 -299,-864 -365,-904 -663,-1596 -1176,-2461 -164,-277 -257,-464 -425,-739l-1528 -2181c-830,-1056 -1406,-1483 -2336,-2247 -799,-656 -2631,-1283 -3683,-1409 -1608,-192 -2985,-39 -4235,395 -1039,361 -1552,695 -2387,1250 -573,382 -1483,1250 -1886,1751 -190,236 -329,422 -499,665 -1065,1523 -1387,1979 -2303,3807 -1391,2778 -2281,6647 -2279,9795 1,765 -33,1707 51,2349l147 1599c94,315 58,172 98,557l218 1018c73,360 214,619 214,1023 92,77 53,16 181,43z"/>
  <path class="fil1" d="M7736 34841c-9,202 4,248 108,375 70,85 19,28 118,105 151,118 -28,11 188,123 540,592 979,1222 1676,1795 339,278 615,508 996,748 334,210 726,382 1089,625 299,89 497,215 806,316 2950,968 5268,630 7887,-944 1380,-829 2285,-2013 3157,-3267l721 -1182c-157,-160 -602,-171 -1092,-402 -364,-172 -708,-276 -1064,-469 -604,-328 -3616,-2105 -4036,-2012 -56,12 -846,433 -1014,519 -410,209 -653,315 -1147,371 -11,829 -20,1668 -27,2499 -5,591 110,2184 -314,2311 -506,-29 -501,-267 -503,-780l23 -3684c-177,-111 -405,-222 -631,-365 -543,-344 -367,22 -687,-303 -237,-124 -155,-67 -158,-460 -52,6 -179,21 -228,17 -134,-11 -126,-35 -184,-67l-125 -287c-5,-12 -22,-24 -26,-53 -4,-28 -16,-36 -27,-53 -838,156 -2551,1258 -3174,1642 -490,302 -927,628 -1486,918 -379,196 -1281,627 -1508,800 195,441 496,748 662,1164z"/>
  <path class="fil1" d="M18910 28221c1,0 2996,866 3573,947 616,87 3160,706 3630,927 77,-168 138,-350 294,-505l-17 -59c111,-340 239,-623 325,-928l686 -2859c225,-1155 516,-3285 394,-4427l-11651 -11c-138,1207 -117,4123 19,5329 527,-15 553,17 1339,673 190,159 373,332 619,475 151,87 290,120 417,173l372 265z"/>
  <path class="fil1" d="M4404 27610c172,315 485,1659 837,2373 480,-31 4681,-1220 5060,-1360 839,-311 1413,-621 2337,-888 1480,-428 1370,-741 2422,-945l172 -88c132,-1807 -83,-3610 2,-5389l-11643 4c-42,1113 104,2228 230,3322 125,1089 368,1919 583,2971z"/>
  <path class="fil2" d="M295 17456c157,-178 54,46 127,-285l-64 -815c223,174 243,334 350,535 141,266 1010,1027 932,1619 -273,-68 -327,-259 -551,-457 15,447 517,800 472,1114 -449,-44 -1184,-1701 -1237,-1763l-2 344c-4,13 -19,18 -22,37 -3,19 -19,30 -23,37 -264,392 -200,390 -201,1162 -1,641 18,878 216,1312 255,560 1497,976 1094,1816 -194,-130 -529,-629 -819,-927 -527,-539 -373,-922 -513,180 -49,387 107,1283 44,1497 -38,129 -179,-88 -34,716 167,929 307,1871 1272,2293 364,159 407,44 539,407 54,147 162,592 123,683 -83,189 67,159 -480,-180 -197,-122 -357,-198 -556,-318 -822,-497 -607,-546 -99,1117 19,62 63,182 82,209 124,181 17,100 222,162 -98,545 175,256 219,780 -789,0 -1057,-415 -699,405 1179,2706 2550,948 2590,2723 -320,-7 -575,-105 -873,-168 -47,13 -134,25 -76,117 100,160 897,207 1318,488 172,115 154,244 152,508l-35 -12c-240,122 -85,-140 -100,123 2,2 988,801 90,656 -133,-21 -272,-82 -385,-146 -118,-67 5,4 -125,-83 -564,-376 -759,-716 -1071,-1522l49 -113c7,-12 24,-45 37,-67 -195,-64 -198,-58 -363,-145 38,456 553,1334 891,1655 198,188 320,223 345,527 -403,0 -483,66 -800,73l0 218c429,114 232,309 582,436 72,272 -54,103 218,74 -7,85 -81,172 200,381 81,60 324,181 433,222 328,123 624,153 1010,227 594,114 1310,454 329,481 -360,10 -334,51 -662,70 191,128 271,105 656,78 645,-46 1104,244 1035,531l-114 251c-11,22 -28,48 -38,74 545,180 723,250 716,449 -298,8 -544,70 -847,1 -489,-111 -1142,-930 -1533,-1238 23,-7 69,-40 81,-49l114 -97 -434 0c100,373 499,526 903,1064 170,227 188,242 334,246l448 409c350,162 896,-225 1447,30 276,128 215,192 321,433l-445 138c634,113 825,88 798,444 -362,66 -825,89 -1215,19l-593 -257c-13,-10 -29,-23 -41,-33l-284 -210c117,244 247,364 495,496 250,133 452,169 792,228 626,107 774,-87 1254,-94 397,-6 139,59 514,-3 -269,-269 -235,-121 -406,-520 -61,-141 -91,-204 -159,-370l-159 -322c-9,-15 -24,-40 -40,-57l39 541c-49,-113 -366,-322 -385,-1063 -7,-297 -52,-1404 22,-1555l-145 -84c-9,667 108,1278 -149,1466 0,-1073 -248,-1759 -800,-2574 -82,183 87,327 199,552 78,159 193,480 246,677 150,562 139,974 137,1563 -253,-11 -132,-255 -400,-425 -152,-95 -404,64 -571,-644 -212,-903 -11,-1642 -91,-1918l-102 -213c0,329 -54,1335 -146,1527 -545,-400 242,-2363 -436,-3543 -103,126 -6,267 60,637 205,1143 -19,1714 -31,2662 -322,-323 -233,-723 -351,-1217l-181 530c-440,-385 -177,-1408 -15,-1915 251,-785 157,-532 82,-612 -138,136 -13,63 -219,112 0,-1035 -150,-1559 -363,-2473l-218 0c-10,437 -248,459 -291,1038 172,-205 185,-366 294,-596 10,-22 42,-86 54,-107 70,-130 57,-103 100,-164 149,935 576,2563 133,3493 -269,-239 -181,-456 -243,-691 0,-1 4,-144 -164,-339l-149 257c-49,-200 -106,-246 -170,-416 -123,-324 -29,-691 54,-1020 -159,75 -128,-122 -128,145l-218 0c0,-1238 421,-1655 440,-2834 7,-467 -68,-749 -76,-1093 -353,94 -84,124 -437,218 0,-321 53,-730 95,-1091 29,-172 50,-260 44,-438 -9,-279 -57,-373 -160,-508 -18,710 -119,2683 -633,3045 -207,-383 165,-852 12,-1206 -94,111 -317,399 -231,568 -566,-826 546,-1976 647,-2204 117,-267 63,-325 8,-421l-873 1382c-11,-519 -150,-458 95,-996 595,-1304 778,-867 778,-3077l-291 0c162,-338 218,-1341 218,-1892 -473,52 -422,462 -872,582 -27,315 -145,394 -364,510 52,-218 -13,-65 140,-291 -20,-15 -45,-39 -56,-48l-133 -98c119,-753 480,-907 626,-1533 -149,207 -608,671 -599,879 -52,-267 52,-519 135,-699l234 -409c43,-73 25,-58 77,-141 170,-271 251,-216 441,-427 10,-11 67,-86 99,-120l340 -309c-120,1565 -786,2089 -916,2361 -206,434 -172,157 -24,281 423,-390 799,-1095 928,-1718 409,-1969 -127,-759 -710,-711 525,-992 945,-1308 945,-2909 -350,29 -468,286 -673,491 -118,118 -179,176 -286,301 -106,124 -14,46 -133,157 -13,12 -50,42 -62,50 -162,100 60,70 -82,19 -38,-81 -97,96 8,-205 21,-62 104,-197 163,-277 147,-196 1651,-1277 1688,-2098 23,-511 -802,554 -1132,398 -49,-139 -86,77 19,-83 141,-215 1502,-926 1749,-2099 -118,-72 -43,-137 -208,246 -398,921 -926,1024 -1548,1647 -10,11 -25,27 -36,37l-262 203c160,-593 434,-622 650,-1155 -270,69 -501,135 -546,441 -13,-391 503,-987 847,-1187 218,-128 1020,-648 1226,-535l0 -279c-272,73 -1198,651 -1527,727 -120,-100 -48,26 0,-145l-146 0c-28,110 -26,281 -53,300 -196,133 -238,-892 -238,-948 -254,-261 -383,-809 -471,-1199 -186,-824 142,-1095 -38,-1373 -66,893 -380,367 88,2041 528,1883 218,1006 131,2052 -252,-169 -756,-957 -895,-1360l-196 -604c-48,204 -82,226 -146,437 -49,161 -95,313 -132,449 -57,211 -51,269 -96,486 -57,279 -111,224 -136,519l-101 -117c-105,-102 -24,-33 -117,-101 -19,231 -102,422 -128,599 -252,1696 366,1769 927,2748 326,569 147,641 147,1308 -465,-124 -1051,-1496 -1310,-1600 -207,432 -72,888 -72,1381z"/>
  <path class="fil2" d="M19597 2618l129 68c422,157 805,-32 1356,312l-835 165c381,16 832,11 1128,133 -471,280 -769,523 -1427,333l-923 -375c-60,-31 -95,-54 -147,-92 -139,-101 -59,-36 -161,-143l925 -328c-443,7 -823,185 -1090,364 164,224 738,445 1016,584 651,324 623,143 1384,143l-582 291c225,336 1331,955 1746,801 529,-1 857,-218 1527,-218 -140,168 -55,170 -506,259 -197,39 -284,82 -449,87 291,-13 563,-96 869,-54 521,72 433,249 534,382l-581 18 1060 419c-778,27 -1859,181 -2293,-639l-161 -21c-11,20 -209,-28 245,318 319,244 769,472 784,592 17,141 -196,57 110,401 438,492 1139,948 1988,1016l364 64c254,12 215,10 364,139l-582 -25c-257,64 -280,36 -418,26 -36,-2 -177,-23 -184,-23l-265 19c389,61 864,154 1317,224 600,93 672,97 926,563l-600 20 274 194c127,61 122,32 300,126 195,104 316,173 405,449 -1552,-221 -1182,99 -2186,-1063 -237,-275 -306,-434 -497,-655 -146,98 -190,13 167,468 290,368 707,778 701,964 -8,275 -129,-93 -9,240 168,470 826,1259 1669,1388 735,112 584,-198 921,528 87,185 158,325 243,485 -306,-25 -165,-13 -397,-185 -319,-235 -886,-553 -1274,-615 256,225 618,360 928,530 427,234 355,335 402,410l174 195 -220 200c10,10 28,26 40,36 406,361 479,242 660,447 -103,45 6,36 -152,27l-1190 -455c-147,-121 -248,-305 -393,-543l-228 -498c-220,-269 64,-117 -130,-58 713,1560 638,1120 1885,1713 257,122 134,63 331,251l-1600 -437c0,390 -2,105 74,219l1049 266c527,214 603,240 653,818 -443,-61 -359,-263 -726,-272 149,100 725,466 823,638 104,182 -91,233 110,241 -269,-15 -382,-30 -612,-151 -101,-52 -170,-103 -271,-162 -544,-323 -647,-431 -842,-973 -16,-46 -40,-120 -61,-165l-124 -206c43,636 493,1134 964,1474 785,567 1145,28 1145,1328l-1008 -742c-893,-639 -75,798 -104,1306 -45,788 -69,1472 619,2112 1157,1077 1075,261 1075,1834 -146,-82 -55,-39 -270,-19l62 -270c-177,-114 -333,-349 -497,-533l-233 -277c-171,-179 -73,-91 -298,-210 -74,316 -111,507 -45,917 219,1357 -221,504 59,1687 70,295 112,591 202,889 159,529 486,844 773,1264 288,423 106,1433 -44,1716l-962 -1456c-130,-161 -133,-230 -192,69 -175,880 -10,1120 -10,1751 -115,58 134,75 -218,0 -36,438 -224,1614 218,1964 0,-327 -25,-518 -73,-779 -34,-188 -181,-614 0,-749 66,-33 -71,-172 147,54l739 1303c8,15 22,31 30,46 302,529 -13,381 -43,416 -7,-132 -100,-347 -291,-437 77,431 161,406 282,775l73 462c52,-352 224,-446 574,-880l136 -171c11,-14 26,-34 36,-47 10,-14 27,-37 36,-49 8,-11 24,-32 36,-49l-685 501c-37,-406 290,-584 472,-815l786 -657c-262,-2 43,-77 -509,275 85,-344 285,-296 436,-581 176,-347 391,-589 300,-998 281,-128 421,-1187 428,-1475 -386,204 -625,622 -1237,945 26,-1168 929,-923 1091,-1814 -295,230 -506,748 -1090,940 128,-965 338,-628 641,-1255 -299,83 -336,132 -572,218 10,-435 304,-735 589,-926 25,-17 179,-114 215,-135 123,-72 132,-59 233,-131 265,-190 125,-245 421,-366 -132,-472 -167,173 -800,342 26,-313 86,-236 145,-539 -242,155 -60,16 -229,241l-590 648c-64,-421 65,-697 247,-995 134,-220 132,-166 244,-414 76,-172 133,-330 160,-510 -88,160 -195,342 -276,468 -133,206 -217,252 -337,437 20,-731 577,-1682 1227,-1935 -59,253 -46,559 -87,850 -44,311 -114,491 -174,803 323,-324 324,-1361 324,-1818 -347,81 -641,437 -922,751 -218,244 0,101 -314,267 0,-822 80,-798 414,-1185 107,-125 150,-211 254,-342 -9,-11 -36,-21 -41,-6l-716 580c45,-617 -110,-353 172,-929 127,-260 185,-451 354,-664 -66,99 -460,529 -583,659 -203,-444 238,-948 527,-1226 93,-90 460,-374 419,-669 -77,107 -116,169 -186,253 -51,61 -137,140 -178,183 12,-510 454,-995 294,-2485 -71,-661 -649,283 -863,607 -130,196 -196,261 -195,499 -136,68 -128,55 -254,143 0,-1676 1255,-1162 509,-4365l-218 0c-8,347 -112,435 -228,718 -44,110 -74,193 -136,301l-218 291c11,-518 151,-31 148,-1457 -1,-370 -77,-1220 -148,-1525 -340,123 -882,1474 -946,1745 -253,-185 -159,-404 -44,-698 416,-1060 355,-1457 190,-2501 -178,342 79,776 -18,1512 -56,415 -263,853 -419,1179 -394,-393 49,-1017 -39,-1635l-273 964c-355,-632 285,-1600 491,-2215 278,345 54,196 223,121l-121 -360c-379,100 -136,231 -546,967l-244 339c0,-515 282,-824 107,-1780 -89,-483 -245,-1202 -543,-1421 -82,170 -199,497 -218,728 -307,-225 -418,-2159 -946,-2546 -22,266 -259,658 -396,1455l61 181c44,-332 191,-1052 408,-1330l325 831c203,516 503,2415 111,2911 -357,-204 -270,-313 -300,-837 -20,-365 -43,-726 -58,-1107 -11,16 -22,24 -25,53l-44 110c-77,275 -41,732 -62,997 -446,-216 -363,-976 -345,-1519 -153,-110 56,-74 -184,0 -169,-433 200,-1297 -925,-2420 -166,-166 -448,-428 -675,-489 0,512 145,730 145,1891 -513,-271 -165,-451 -517,-1374 -164,-429 -461,-809 -792,-1133 -59,149 270,295 595,896 229,422 175,845 297,1382 -435,-259 -534,-775 -811,-1214l222 873c-149,-23 -98,-33 -201,-112 -459,-355 -641,-1663 -719,-2212l184 111c18,11 34,23 52,33 228,134 -72,53 235,110 -55,-61 -293,-246 -371,-275 -288,-109 -233,15 -32,918 70,315 112,221 112,615 -214,-226 -239,-294 -363,-789 -67,86 -145,-41 16,483 67,217 116,212 57,379 -350,-78 -560,-681 -728,-992 -131,213 111,354 180,824 -845,-163 -904,-1453 -1042,-2374 521,239 630,645 1008,996 -84,-428 -125,-218 -477,-668 -153,-195 -373,-413 -614,-477 0,580 64,766 143,1238 138,825 325,599 366,1089 -255,-122 -767,-73 -1137,-73z"/>
  <path class="fil3" d="M15234 21313c122,152 102,191 91,578 -8,243 -14,487 -10,730 22,1217 122,3145 -3,4243l598 -28 89 -87c7,-9 26,-38 42,-55 -108,-798 -81,-4471 -26,-5382 56,-2521 -41,-5185 6,-7644 11,-636 47,-397 1057,-587 1419,-266 1337,-738 1334,-2099 -2,-791 -50,-611 -275,-891l-1025 -2398c-281,-521 -383,-891 -1222,-1113 -1224,-323 -1740,698 -2069,1279 -228,403 -336,136 -710,372 -365,230 -473,1206 548,1233 -30,949 -399,561 -625,1092 -114,267 -146,1311 -94,1664 133,889 1424,880 2034,1020 143,33 50,3 173,53 116,48 78,35 150,91 54,194 31,7520 -63,7929z"/>
  <path class="fil2" d="M30480 26331l0 -73c-151,285 -351,237 -436,581 552,-352 247,-277 509,-275 14,-167 -154,-71 543,-356 -52,275 -161,318 -335,772 -6,17 -13,36 -20,53 -149,378 -176,465 -419,742 -598,680 -1057,804 -1160,956l-73 -462c-121,-369 -205,-344 -282,-775 191,90 284,305 291,437 30,-35 345,113 43,-416 -8,-15 -22,-31 -30,-46l-739 -1303c-218,-226 -81,-87 -147,-54 -181,135 -34,561 0,749 48,261 73,452 73,779 -48,195 -46,70 21,268 42,127 370,643 401,841 44,289 -232,977 -298,1291l-97 126c-280,531 122,279 -317,506 -35,-223 -74,-306 -133,-537 -71,-272 -94,-307 -16,-398 -23,208 2,588 30,796 18,136 73,325 77,450 7,186 16,62 -15,223 -33,171 -36,133 -89,216 -354,-202 -360,-596 -423,-1234 -45,-461 46,-1225 -13,-1408 -34,455 -73,841 -73,1406l-146 0c-23,-281 -72,-287 -72,-655l-93 53c-108,93 -36,5 -110,108 -422,588 -390,1858 -236,2459 120,466 384,781 173,1257 -89,202 -164,339 -267,537 -197,379 -192,400 -413,459 -69,-294 -121,-570 -187,-903 -76,-388 -177,-525 -177,-915 -687,364 -942,1910 -713,2823 167,670 213,787 -160,887 0,-1029 -157,-1310 -218,-2037l-145 0c-142,530 -670,885 -658,2329 6,733 359,817 -515,1517 -224,181 -168,223 -500,300 8,-379 241,-725 332,-1123 92,-402 177,-842 177,-1277l-218 0c-98,269 -136,167 -478,540l-308 347c-101,136 -239,338 -317,483l-279 594c0,-715 23,-468 -364,-364 164,-310 206,-238 600,-637 139,-141 213,-194 345,-310 416,-365 600,-611 902,-1061 272,-405 306,-591 553,-756l-100 -124c-872,1254 -1777,2438 -3157,3267 -2619,1574 -4937,1912 -7887,944 -309,-101 -507,-227 -806,-316 258,328 390,294 714,410 137,49 165,76 254,110 724,276 1702,359 2440,469l2052 -122c144,-23 370,-114 553,-174 1027,-338 1225,-374 2119,-863l982 -546c-83,229 -5,59 -179,257 -1253,1428 -600,1579 -1026,2030 -55,59 -464,296 -541,331 -528,246 -1701,548 -1964,778l-668 207c188,-561 350,-134 555,-799 -482,413 -305,470 -961,833 23,6 106,-16 179,15l459 494c264,188 778,272 1297,521 134,64 253,113 408,174 682,267 875,688 1422,978 -137,-1657 -544,-1227 -1996,-1641 -328,-94 -660,-243 -986,-250 75,-279 7,-163 258,-252 153,-55 305,-72 461,-121 248,-78 575,-184 819,-272l1607 -651c1122,-192 794,730 2660,263 875,-219 726,-19 814,-349l-278 0c-328,486 -1460,331 -2001,192 -650,-167 -451,-152 -485,-338 454,-378 877,10 1224,-178 -231,-69 -733,-159 -836,-258 772,-670 1246,181 1868,416l120 20c-1193,-698 -14,-205 1448,-978 225,-119 187,-87 249,-253 -427,156 -816,385 -1309,509l-1192 -15c-161,-44 -206,-121 -264,-210 610,-209 980,-64 1482,-217 -394,-85 -938,-67 -1334,-5l314 -338c109,-77 359,-153 776,-95l73 -289c310,-140 494,-354 744,-565 688,-578 1185,497 2895,-597 174,-111 300,-135 361,-366 -213,-49 -447,-89 -656,-144 -260,-68 -338,-139 -653,-146l0 -219c482,-40 1917,-895 1964,-1454 -820,0 -1159,-9 -1819,145 33,-390 139,-359 334,-612 147,-191 248,-368 378,-567 791,-1211 1701,147 2945,-2220 105,-200 104,-122 126,-383 -397,9 -547,198 -946,291 52,-194 937,-1208 1019,-2182l-1455 654c18,-798 652,-1191 1019,-1454 1264,-906 1126,-1856 1527,-2692 -491,114 -310,322 -801,437z"/>
  <path class="fil2" d="M9460 1460c230,-164 233,-224 472,-298 -1,699 0,1691 -472,2045l-58 -106c-8,-17 -18,-39 -25,-57 -8,-18 -15,-42 -21,-59l-55 -188c-100,564 -342,1144 -680,1346 -85,-977 183,-1651 585,-2397 -403,203 -252,267 -619,654l0 -509c-497,133 -1560,1614 -1666,2481 -119,981 254,975 -225,1229 0,-364 1,-728 -1,-1092 -3,-460 73,-650 73,-1018 -279,148 -432,257 -582,539 307,-188 88,-205 404,-244 -132,461 -122,945 -82,1451 56,693 88,762 -201,1220 -195,-315 -109,7 -166,-350 -25,-161 -27,-392 -47,-568 -204,403 50,887 -123,1372 -95,268 -59,187 -221,274 -263,-158 -317,-739 -345,-1038 -60,-657 27,-641 199,-1201l-363 364c-60,-257 -73,-239 -73,-582l-218 0c-180,673 -1144,981 -500,2973 127,393 287,707 -82,955 -94,-197 -126,-662 -227,-938 -113,-313 -232,-555 -500,-735 -57,244 -149,549 -236,800 112,150 -62,233 318,-577 310,661 693,1337 281,2166 -156,-76 -42,11 -152,-142 -37,-50 -44,-119 -106,-206 10,131 42,392 33,504 -22,267 -71,291 -222,436 -270,-919 -219,-930 -180,-1890 -104,110 -29,-16 -102,137 -64,133 -32,35 -59,168 -73,358 61,1168 61,1440 -275,-396 -436,-691 -436,-1309l-219 0 0 227c250,32 -36,229 440,1076 75,134 190,406 249,558 207,530 -112,855 -293,445l-137 -348c-12,-21 -28,-44 -39,-61 -10,-19 -25,-44 -41,-63 -3,574 187,808 183,1408 -76,56 -61,38 -144,38 0,56 42,1081 238,948 27,-19 25,-190 53,-300l146 0c16,-408 -23,-70 94,-264 2,-4 73,-104 89,-134 101,-191 7,134 65,-163 250,21 156,65 649,-215l1431 -1333 -510 0c107,-296 214,-85 219,-436 427,150 52,51 274,-18l544 -474c452,-504 353,-590 200,-818 230,-61 608,-365 783,-526 391,-359 361,-537 599,-711l-244 -192c-9,-6 -32,-16 -47,-26 370,-40 74,6 396,-259l750 -559c168,-137 214,-156 236,-418l-291 -219c670,-55 1237,-438 1527,-872 -170,-91 -189,-125 -437,-146 33,116 285,228 287,225 14,-19 52,24 74,42 -203,41 -1102,764 -2033,706l-331 -100c59,-358 149,-310 530,-334 242,-15 359,-37 601,-102 -137,-81 -529,-57 -713,-87 290,-584 364,-455 994,-394 -520,-311 -140,-286 -135,-295l72 43 219 6c116,212 467,165 729,151 176,-10 168,14 315,-48 308,-128 180,-113 265,-248 -383,138 -1353,395 -1429,-147 296,-248 700,-84 1053,-198 -272,-130 -559,-145 -914,-93 118,-443 650,-498 1136,-445 219,24 993,221 1112,445 192,-50 104,1 206,-145 -269,-129 -330,-47 -510,-291 703,0 2065,-481 2328,-873 -533,-256 -1015,-482 -1631,-556 -308,-37 -323,40 -624,47 69,-144 146,-325 204,-451l441 -1014c113,-247 163,-221 228,-499 -576,134 -1084,361 -1439,743 -205,220 -281,376 -349,742l-249 843 0 -1382c-268,71 -449,306 -581,514z"/>
  <path class="fil4" d="M4404 27610c-154,935 101,777 455,1866 250,768 337,898 674,1654l488 891c109,148 19,41 93,112 172,130 401,424 436,624 214,-79 55,-234 478,-57 57,-252 152,-267 796,-495 330,-118 547,-56 985,-283 394,-205 356,-81 887,-420l2526 -1374c405,-177 1453,-469 1903,44l66 82c10,14 23,35 31,47l62 103c-286,226 -469,345 -864,306 58,32 50,56 184,67 49,4 176,-11 228,-17 3,393 -79,336 158,460l-21 -324c7,109 298,295 562,215 163,-133 185,-240 296,-444 295,-542 -68,-363 233,-483 84,136 40,-94 28,135 -16,324 -352,645 -424,958 114,64 190,121 324,180 376,-264 484,-956 581,-1225l397 642c272,469 300,350 549,368 -108,-357 -476,-625 -738,-880 88,-151 -165,-111 228,-122 -88,-133 30,-176 -72,-55 296,280 279,-85 291,-94 -200,-71 -100,-29 -260,-112 -122,-63 132,96 -93,-54 -314,-209 -253,-620 -780,-460 -111,34 -109,59 -153,89 -2,17 3,42 5,51 47,183 148,321 307,376 -414,181 -297,-265 -990,205l-133 -262c-1,-19 -5,-28 -12,-40 -380,-82 -509,-16 -722,-163 205,-66 -48,16 203,-199 6,-5 24,-17 30,-22l242 -170c-342,-113 -251,-104 -408,135l-33 -102c-15,-46 12,-239 -231,-223 -61,4 -712,167 -992,74 -114,-38 9,8 -111,-59 -381,-213 181,61 -109,-65 -175,-77 7,28 -214,-51 23,-268 72,-66 90,-304 24,-334 -171,263 -29,-251 82,-53 78,-44 192,-79 428,-131 -133,142 122,-31 150,-103 -179,127 48,-78 144,-131 -16,-15 89,-53 242,-86 484,-79 742,-84 55,-223 57,175 -49,-69 -33,-75 -81,-23 78,-121 879,-539 1384,309 1854,-573l53 -100c9,-20 37,-74 60,-147l40 -359c-1052,204 -942,517 -2422,945 -924,267 -1498,577 -2337,888 -379,140 -4580,1329 -5060,1360 -352,-714 -665,-2058 -837,-2373z"/>
  <path class="fil5" d="M14846 6971c486,-156 836,-174 998,287l-155 113c-123,72 54,-54 -110,60 -15,11 -60,48 -76,61 -334,271 -1223,624 -1462,649 -184,26 -720,156 -881,257 -76,343 -71,623 160,751 77,43 1161,-266 458,1059 -103,193 -203,249 -281,305 -571,411 -179,764 -343,1456 518,84 1273,-177 1765,-234 16,-2 37,-3 52,-4 1573,-148 1653,-11 3003,266 156,298 -124,83 115,269 58,-254 134,-1368 50,-1698 -13,-49 -173,-366 -174,-367 -4,-6 -19,-19 -23,-24l-90 -88c-139,-185 -45,-33 -105,-197 -66,-179 -67,-291 -158,-505 -145,-340 -296,-548 -410,-824 -76,-183 -54,-226 -102,-366 -234,-676 -642,-1330 -1420,-1496 -496,-105 -577,92 -811,270z"/>
  <path class="fil6" d="M16005 30240c-393,11 -140,-29 -228,122 262,255 630,523 738,880 -249,-18 -277,101 -549,-368l-397 -642c-97,269 -205,961 -581,1225 -134,-59 -210,-116 -324,-180 72,-313 408,-634 424,-958 12,-229 56,1 -28,-135 -301,120 62,-59 -233,483 -111,204 -133,311 -296,444 -264,80 -555,-106 -562,-215l21 324c320,325 144,-41 687,303 226,143 454,254 631,365l-23 3684c2,513 -3,751 503,780 424,-127 309,-1720 314,-2311 7,-831 16,-1670 27,-2499 494,-56 737,-162 1147,-371 168,-86 958,-507 1014,-519 420,-93 3432,1684 4036,2012 356,193 700,297 1064,469 490,231 935,242 1092,402l-721 1182c390,-168 306,-373 649,-782 85,-100 148,-152 213,-297 65,-145 45,-170 116,-320 145,-303 424,-587 504,-1095l-436 582c-205,-154 -376,-254 -251,-457 -368,181 -419,54 -815,-57 -1116,-315 -603,-49 -1591,-598 -387,-216 -371,-123 -613,-273 -70,-43 -125,-101 -139,-110l-180 -91c-447,-262 -2565,-1010 -2904,-1014l26 -518c-130,64 -36,33 -115,95 -149,118 56,61 -160,102 -170,-381 -328,-348 -419,-778l415 -203c-212,-217 -211,-59 -510,-99 -199,-27 -500,-519 -617,-703 -252,-398 140,-148 -469,-265l220 -411c-629,62 -54,26 -461,-139 -306,160 -250,118 -583,62 -138,276 -335,596 -658,657l-499 71c0,0 0,467 809,89 297,-140 239,-256 495,-401 778,389 1581,1081 1963,1840 -214,195 -271,344 -853,-164 -245,-214 -52,-106 -242,-334 -237,386 210,361 805,1225 -86,163 -82,143 -219,238 -164,-174 -68,46 -11,-251l13 -61c-110,-40 -32,28 -293,63 -332,-490 -505,-311 -588,-734 -37,-188 108,50 -18,-112 -127,-69 -254,-55 -438,-123 -203,-75 -217,-141 -451,-152l1187 1156c36,37 217,207 220,212 209,307 -29,368 -216,294l-642 -621z"/>
  <path class="fil7" d="M15910 26836c-174,193 -318,149 -632,149l0 291c508,-188 638,139 1465,-144l-58 293 -220 411c609,117 217,-133 469,265 117,184 418,676 617,703 299,40 298,-118 510,99l-415 203 469 -34c9,18 18,27 22,57 62,450 637,619 729,670 -367,-115 -291,38 -348,168 531,372 1784,593 2976,1198 806,409 1043,544 1891,748 930,224 -188,86 1160,193 -40,-467 97,-157 -372,-408 -244,-132 -322,-151 -664,-248 -85,-24 -281,-90 -318,-109 -100,-51 12,9 -120,-77 -272,-178 -568,-264 -647,-467 489,412 1003,110 1326,98 337,-12 129,143 347,-256 179,118 13,57 274,73 49,144 -41,-42 2,97 58,183 -28,62 99,206 90,-316 150,51 436,-364l280 207c0,-386 -6,-111 73,-219 -14,-14 -35,-55 -42,-42 -8,13 -33,-32 -43,-41 -321,-264 -168,-47 -622,-409 -200,-159 -186,-117 -635,-229 -260,-65 -242,14 -556,-176 -268,-161 -493,-60 -1354,-336l-2489 -605c-16,-1 -38,2 -53,1 -166,-9 -60,22 -181,-30 -62,-27 -88,-62 -161,-111 -562,-380 -422,192 -744,-318 -90,-141 -128,-187 -194,-339 184,-42 471,95 723,217l-372 -265c-127,-53 -266,-86 -417,-173 -246,-143 -429,-316 -619,-475 -786,-656 -812,-688 -1339,-673 -136,-1206 -157,-4122 -19,-5329l-129 6c-55,911 -82,4584 26,5382 -16,17 -35,46 -42,55l-89 87z"/>
  <path class="fil2" d="M10914 38259l-145 0 73 416 145 -260c309,264 251,50 456,415 98,176 156,356 231,529 205,472 205,947 417,1083 -211,-78 -443,-307 -476,-655 -94,109 -351,-127 46,588 -670,-257 -615,-930 -703,-1731l-116 226c-301,-278 -753,-1344 -1819,-1629 0,308 16,475 85,716 67,235 184,403 206,666 -362,-30 -364,-248 -433,-585 -138,-669 -201,-1756 -876,-2348 -160,-14 -71,-66 -62,100 23,394 -68,-31 180,307 518,707 563,1793 766,2650l-84 22 45 109c168,491 244,17 -512,515 -289,190 -561,384 -915,467 388,578 1092,674 1225,743 266,137 11,119 176,401 125,213 517,438 809,502 827,182 1302,-439 1986,-653 450,-142 769,51 1089,195 496,224 1265,390 1471,565 134,114 243,244 372,356l-1875 452c-353,79 -544,154 -668,497 -62,174 -55,270 -75,506 -40,469 -51,156 -146,509 903,-433 618,-753 1797,-1258 282,-120 489,-158 749,-342 404,-94 220,-420 634,-519l-80 -158c-7,-14 -40,-82 -52,-103 -370,-42 -498,-182 -838,-457 -573,-64 -1699,-486 -1921,-1016 -178,-426 -251,-941 -553,-1355 -98,-134 -128,-57 -108,-171 42,-236 153,-15 153,-15 193,44 -83,91 343,73 -363,-243 -755,-415 -1089,-625 -381,-240 -657,-470 -996,-748 -697,-573 -1136,-1203 -1676,-1795 46,486 1873,2200 2369,2484 24,13 226,131 229,134 136,105 103,22 166,197z"/>
  <path class="fil7" d="M15060 26790l-40 359c-23,73 -51,127 -60,147l-53 100c-470,882 -975,34 -1854,573 -159,98 -111,46 -78,121 106,244 104,-154 49,69 -258,5 -500,-2 -742,84 -105,38 55,-78 -89,53 -227,205 102,-25 -48,78 -255,173 306,-100 -122,31 -114,35 -110,26 -192,79 -142,514 53,-83 29,251 -18,238 -67,36 -90,304 221,79 39,-26 214,51 290,126 -272,-148 109,65 120,67 -3,21 111,59 280,93 931,-70 992,-74 243,-16 216,177 231,223l33 102c157,-239 66,-248 408,-135l-242 170c-6,5 -24,17 -30,22 -251,215 2,133 -203,199 213,147 342,81 722,163 7,12 11,21 12,40l133 262c693,-470 576,-24 990,-205 -159,-55 -260,-193 -307,-376 -2,-9 -7,-34 -5,-51 44,-30 42,-55 153,-89 527,-160 466,251 780,460 225,150 -29,-9 93,54 160,83 60,41 260,112 -12,9 5,374 -291,94 102,-121 -16,-78 72,55l642 621c187,74 425,13 216,-294 -3,-5 -184,-175 -220,-212l-1187 -1156c234,11 248,77 451,152 184,68 311,54 438,123 126,162 -19,-76 18,112 83,423 256,244 588,734 261,-35 183,-103 293,-63l-13 61c-57,297 -153,77 11,251 137,-95 133,-75 219,-238 -595,-864 -1042,-839 -805,-1225 190,228 -3,120 242,334 582,508 639,359 853,164 -382,-759 -1185,-1451 -1963,-1840 -256,145 -198,261 -495,401 -809,378 -809,-89 -809,-89l499 -71c323,-61 520,-381 658,-657 333,56 277,98 583,-62 407,165 -168,201 461,139l58 -293c-827,283 -957,-44 -1465,144l0 -291c314,0 458,44 632,-149l-598 28c125,-1098 25,-3026 3,-4243 -4,-243 2,-487 10,-730 11,-387 31,-426 -91,-578 -85,1779 130,3582 -2,5389l-172 88z"/>
  <path class="fil4" d="M17646 29106c91,430 249,397 419,778 216,-41 11,16 160,-102 79,-62 -15,-31 115,-95l-26 518c339,4 2457,752 2904,1014l180 91c14,9 69,67 139,110 242,150 226,57 613,273 988,549 475,283 1591,598 396,111 447,238 815,57 -125,203 46,303 251,457l436 -582c302,-97 1219,-2406 1237,-2619l-73 -14c-156,155 -217,337 -294,505 -470,-221 -3014,-840 -3630,-927 -577,-81 -3572,-947 -3573,-947 -252,-122 -539,-259 -723,-217 66,152 104,198 194,339 322,510 182,-62 744,318 73,49 99,84 161,111 121,52 15,21 181,30 15,1 37,-2 53,-1l2489 605c861,276 1086,175 1354,336 314,190 296,111 556,176 449,112 435,70 635,229 454,362 301,145 622,409 10,9 35,54 43,41 7,-13 28,28 42,42 -79,108 -73,-167 -73,219l-280 -207c-286,415 -346,48 -436,364 -127,-144 -41,-23 -99,-206 -43,-139 47,47 -2,-97 -261,-16 -95,45 -274,-73 -218,399 -10,244 -347,256 -323,12 -837,314 -1326,-98 79,203 375,289 647,467 132,86 20,26 120,77 37,19 233,85 318,109 342,97 420,116 664,248 469,251 332,-59 372,408 -1348,-107 -230,31 -1160,-193 -848,-204 -1085,-339 -1891,-748 -1192,-605 -2445,-826 -2976,-1198 57,-130 -19,-283 348,-168 -92,-51 -667,-220 -729,-670 -4,-30 -13,-39 -22,-57l-469 34z"/>
  <path class="fil8" d="M13997 41096c340,275 468,415 838,457 -374,90 118,51 -348,-219 -243,-140 -252,-128 -363,-351 -8,-14 -19,-33 -25,-48 -139,-352 -81,-220 161,-395 -16,238 -96,-225 31,158 177,535 586,524 842,907l0 -363c-150,-194 -169,106 -364,-728l1819 0c-442,661 -347,655 -1164,655 3,572 227,489 64,1018l518 0c35,425 581,972 750,1359 267,610 249,1051 777,1405 1037,-241 303,-793 116,-1352 -462,-1385 -434,-545 -770,-1557l-459 -494c-73,-31 -156,-9 -179,-15 656,-363 479,-420 961,-833 -205,665 -367,238 -555,799l668 -207c11,-167 171,-1174 -179,-1472 -292,-250 -1221,-14 -1554,-41 -229,-19 -1378,-209 -1600,-126 -345,128 -86,1063 3,1397 2,9 10,30 12,46z"/>
  <path class="fil7" d="M9453 29804c-39,-38 -46,-48 -100,-102l-112 -110c-138,148 -169,243 -481,197l-90 -18c-485,-126 -352,-263 -1293,71 -168,60 -1221,263 -1515,530 -403,366 92,-11 -130,428l-279 -339c183,485 399,756 515,1180 79,-35 73,-205 204,112 104,-265 -112,-248 730,-139 360,47 -31,148 289,89l1172 -303c141,-57 172,-88 259,-118l705 -282c592,-372 323,-212 743,-276 57,-350 -86,-385 114,-438 56,-14 186,36 198,40 261,74 186,52 259,5 -67,-54 -30,-40 -141,-100 -296,-158 -295,-93 -441,-51l43 -391c-49,-176 25,-15 -59,-186 -294,95 -70,-53 -202,274 -15,-238 -23,-281 -181,-420 -143,233 -140,75 -207,347z"/>
  <path class="fil6" d="M6114 32133c33,438 607,1168 831,1586l599 1002c125,124 -8,58 192,120 -166,-416 -467,-723 -662,-1164 227,-173 1129,-604 1508,-800 559,-290 996,-616 1486,-918 623,-384 2336,-1486 3174,-1642 11,17 23,25 27,53 4,29 21,41 26,53l125 287c395,39 578,-80 864,-306l-62 -103c-8,-12 -21,-33 -31,-47l-66 -82c-450,-513 -1498,-221 -1903,-44l-2526 1374c-531,339 -493,215 -887,420 -438,227 -655,165 -985,283 -644,228 -739,243 -796,495 -423,-177 -264,-22 -478,57 -35,-200 -264,-494 -436,-624z"/>
  <path class="fil9" d="M14835 41553c12,21 45,89 52,103l80 158c-414,99 -230,425 -634,519 -77,233 -129,343 -233,569 -519,1126 -713,779 -713,1540l509 364 635 -893c202,-307 322,-834 517,-1083 94,-120 166,-148 235,-275l82 -209c91,-180 -79,-71 123,-159 163,-529 -61,-446 -64,-1018l-291 73 0 363c-256,-383 -665,-372 -842,-907 -127,-383 -47,80 -31,-158 -242,175 -300,43 -161,395 6,15 17,34 25,48 111,223 120,211 363,351 466,270 -26,309 348,219z"/>
  <path class="fil10" d="M6186 4030c-167,68 -436,426 -532,607 -154,290 -97,114 -50,309 -172,560 -259,544 -199,1201 28,299 82,880 345,1038 162,-87 126,-6 221,-274 173,-485 -81,-969 123,-1372 20,176 22,407 47,568 57,357 -29,35 166,350 289,-458 257,-527 201,-1220 -40,-506 -50,-990 82,-1451 -316,39 -97,56 -404,244z"/>
  <path class="fil10" d="M25502 5092c-170,83 -88,-125 -113,290 240,-74 31,-110 184,0 -18,543 -101,1303 345,1519 21,-265 -15,-722 62,-997l44 -110c3,-29 14,-37 25,-53 15,381 38,742 58,1107 30,524 -57,633 300,837 392,-496 92,-2395 -111,-2911l-325 -831c-217,278 -364,998 -408,1330l-61 -181z"/>
  <path class="fil10" d="M24589 5397c158,-325 -48,-400 50,-730 145,298 150,966 459,1133 258,-569 105,-1324 -111,-1842 -204,-487 -569,-1058 -1089,-1266 58,523 129,959 183,1527 53,552 -53,1078 508,1178z"/>
  <path class="fil11" d="M30917 16075c41,295 -326,579 -419,669 -289,278 -730,782 -527,1226 123,-130 517,-560 583,-659 -169,213 -227,404 -354,664 -282,576 -127,312 -172,929l716 -580c5,-15 32,-5 41,6 244,-333 412,-629 478,-1109 88,-642 64,-879 18,-1437 -314,83 -180,149 -364,291z"/>
  <path class="fil10" d="M7205 5420c521,-87 454,-1028 635,-1369l19 744c487,-176 403,-605 394,-1084 -12,-566 69,-997 125,-1539 -123,135 -166,144 -293,305l-752 995c-229,486 -411,1428 -128,1948z"/>
  <path class="fil10" d="M2777 30704c36,-251 -143,-473 -345,-544 6,-27 28,-86 36,-74 0,1 471,-540 -355,-981 -192,-103 -1178,-251 -1410,-257 204,241 496,1850 2074,1856z"/>
  <path class="fil11" d="M5750 38142l284 210c12,10 28,23 41,33l593 257c390,70 853,47 1215,-19 27,-356 -164,-331 -798,-444l445 -138c-106,-241 -45,-305 -321,-433 -551,-255 -1097,132 -1447,-30l-448 -409c-100,240 40,156 -219,218l0 218c300,108 330,483 655,537z"/>
  <path class="fil10" d="M6041 33823l102 213c80,276 -121,1015 91,1918 167,708 419,549 571,644 268,170 147,414 400,425 2,-589 13,-1001 -137,-1563 -53,-197 -168,-518 -246,-677 -112,-225 -281,-369 -199,-552 -201,-225 -246,-464 -582,-554l0 146z"/>
  <path class="fil10" d="M4732 8154c269,-170 307,-386 307,-735l194 -70c452,-193 -188,218 134,-68 37,-928 -321,-1442 -282,-2397 -316,236 -696,831 -732,1440 -43,726 220,1192 379,1830z"/>
  <path class="fil10" d="M3932 30569c-50,52 -54,-117 -109,161 -47,231 -48,36 18,256 -83,329 -177,696 -54,1020 64,170 121,216 170,416l149 -257c168,195 164,338 164,339 62,235 -26,452 243,691 443,-930 16,-2558 -133,-3493 -43,61 -30,34 -100,164 -12,21 -44,85 -54,107 -109,230 -122,391 -294,596z"/>
  <path class="fil10" d="M5314 9893c248,-159 345,-136 666,-499 8,-9 98,-114 99,-115 114,-151 110,-178 203,-404 -1210,316 -2084,49 -2517,1283 392,-118 231,-185 625,-272 -125,179 -260,231 -447,384 -33,27 -183,185 -217,230 -355,472 621,-2 792,-106 186,-114 722,-423 796,-501z"/>
  <path class="fil10" d="M4719 8814c451,-261 479,-632 1154,-728 -225,126 -619,422 -678,679 737,107 1141,-304 1607,-658 249,-188 264,-142 496,-448l156 -213c12,-15 50,-65 66,-84 -332,9 -1641,124 -1895,223 -364,142 -819,826 -906,1229z"/>
  <path class="fil10" d="M1396 23786c-65,-367 -264,-271 -451,-581 -114,-188 -230,-573 -163,-781 108,361 332,939 749,985 155,-513 -230,-1007 -467,-1349l-818 -1107c-67,108 -19,-26 -52,156 -122,664 56,1926 528,2390 17,16 240,204 284,231 182,112 181,94 390,56z"/>
  <path class="fil10" d="M24461 7492c191,221 260,380 497,655 1004,1162 634,842 2186,1063 -89,-276 -210,-345 -405,-449 -178,-94 -173,-65 -300,-126l-274 -194 600 -20c-254,-466 -326,-470 -926,-563 -453,-70 -928,-163 -1317,-224l265 -19c7,0 148,21 184,23 138,10 161,38 418,-26l218 -114 -364 -64c-188,95 -501,58 -782,58z"/>
  <path class="fil11" d="M27426 28780c59,183 -32,947 13,1408 63,638 69,1032 423,1234 53,-83 56,-45 89,-216 31,-161 22,-37 15,-223 -4,-125 -59,-314 -77,-450 -28,-208 -53,-588 -30,-796 -78,91 -55,126 16,398 59,231 98,314 133,537 439,-227 37,25 317,-506l97 -126c-123,-112 -191,-562 -360,-1072 -111,-336 -180,-862 -418,-1037 -59,252 -146,588 -218,849z"/>
  <path class="fil10" d="M5023 31892c75,80 169,-173 -82,612 -162,507 -425,1530 15,1915l181 -530c118,494 29,894 351,1217 12,-948 236,-1519 31,-2662 -66,-370 -163,-511 -60,-637 -76,-135 -99,-139 -145,-312l-219 0c-4,202 -21,262 -72,397z"/>
  <path class="fil10" d="M10804 2490l601 135c-491,156 -850,85 -1167,357 886,447 2192,14 3002,-436 -764,-580 -2034,-683 -2436,-56z"/>
  <path class="fil10" d="M9460 1460c-259,58 -257,40 -254,286 -402,746 -670,1420 -585,2397 338,-202 580,-782 680,-1346l55 188c6,17 13,41 21,59 7,18 17,40 25,57l58 106c472,-354 471,-1346 472,-2045 -239,74 -242,134 -472,298z"/>
  <path class="fil10" d="M2172 14881c7,-576 -348,-930 -428,-1430 210,222 451,629 622,1010 282,-1162 -369,-1114 -921,-2698 -563,977 -176,2581 727,3118z"/>
  <path class="fil10" d="M29789 15132c-144,391 -213,837 -106,1221 308,-222 264,-513 502,-793 -81,552 -333,858 -320,1400 255,-129 633,-820 757,-1176 232,-664 69,-1222 115,-1857 -367,199 -758,853 -948,1205z"/>
  <path class="fil11" d="M8805 38769l84 -22c-203,-857 -248,-1943 -766,-2650 -248,-338 -157,87 -180,-307 -9,-166 -98,-114 62,-100l-288 -267c-74,151 -29,1258 -22,1555 19,741 336,950 385,1063l-39 -541c16,17 31,42 40,57l159 322c68,166 98,229 159,370 171,399 137,251 406,520z"/>
  <path class="fil10" d="M21825 2193c-72,-147 -138,-255 -212,-383 -5,-8 -105,-177 -109,-182 -211,-249 -18,-88 -188,-119 -378,-351 -487,-757 -1008,-996 138,921 197,2211 1042,2374 -69,-470 -311,-611 -180,-824 168,311 378,914 728,992 59,-167 10,-162 -57,-379 -161,-524 -83,-397 -16,-483z"/>
  <path class="fil10" d="M29159 13687c296,-322 461,-964 571,-1372 67,811 -509,1370 -394,2329 252,-163 672,-1129 757,-1561 132,-668 43,-1403 -137,-2003 -258,592 -929,1842 -797,2607z"/>
  <path class="fil10" d="M20613 4146l153 109c49,36 109,83 134,102 91,67 152,116 253,176 702,417 1565,343 2184,-103 -163,-77 -367,-234 -509,-278 -410,-128 -422,52 -810,-51 96,-29 348,-114 448,-184 -349,-499 -1473,1 -1853,229z"/>
  <path class="fil11" d="M31062 22916c333,-119 437,-1236 437,-1655 -296,121 -156,176 -421,366 -101,72 -110,59 -233,131 -36,21 -190,118 -215,135 -285,191 -579,491 -589,926 236,-86 273,-135 572,-218 -303,627 -513,290 -641,1255 584,-192 795,-710 1090,-940z"/>
  <path class="fil10" d="M27680 32274c285,188 438,-112 821,109 -548,64 -1098,227 -1148,802 1409,-53 1909,-520 2539,-1675 -363,130 -649,270 -1067,369 -525,124 -719,86 -1145,395z"/>
  <path class="fil10" d="M2331 9218c180,278 -148,549 38,1373 88,390 217,938 471,1199 83,0 68,18 144,-38 4,-600 -186,-834 -183,-1408 16,19 31,44 41,63 11,17 27,40 39,61l137 348c181,410 500,85 293,-445 -59,-152 -174,-424 -249,-558 -476,-847 -190,-1044 -440,-1076 -210,137 -136,236 -291,481z"/>
  <path class="fil11" d="M23365 40442l-110 -146 -120 -20c-622,-235 -1096,-1086 -1868,-416 103,99 605,189 836,258 -347,188 -770,-200 -1224,178 34,186 -165,171 485,338 541,139 1673,294 2001,-192z"/>
  <path class="fil10" d="M3131 34478c280,325 1224,687 1772,617 4,-16 3,-60 2,-50 -1,13 57,-422 -682,-527l139 -99c470,-363 -122,-552 -379,-596 -540,-92 -927,1 -1404,102 476,454 257,407 552,553z"/>
  <path class="fil10" d="M1167 27951c149,196 214,465 487,648 155,104 576,254 678,351 167,-516 -498,-626 -551,-1133 208,62 167,162 488,282 -121,-549 -277,-855 -634,-1065 -184,-108 -344,-144 -537,-254 -229,-130 -317,-230 -504,-353l573 1524z"/>
  <path class="fil10" d="M3204 25167c55,96 109,154 -8,421 -101,228 -1213,1378 -647,2204 -86,-169 137,-457 231,-568 153,354 -219,823 -12,1206 514,-362 615,-2335 633,-3045 103,135 151,229 160,508 6,178 -15,266 -44,438 169,-380 39,-1176 -95,-1455 -183,134 -113,56 -218,291z"/>
  <path class="fil10" d="M2913 29839c-1,-1 -263,-26 185,-359 -61,488 -141,872 179,1130 224,-340 667,-2329 436,-3155 -652,440 -977,1767 -800,2384z"/>
  <path class="fil10" d="M6683 6328c16,10 43,-2 52,21 72,185 -18,-16 109,47l120 64c17,9 43,22 62,37 -468,110 -945,372 -1058,776 571,86 1113,-210 1522,-451 240,-141 437,-187 634,-371l522 -447c-1014,-66 -1320,-438 -1963,324z"/>
  <path class="fil10" d="M29619 17323c47,-530 -253,-214 -579,-834 282,81 189,154 529,283 -143,-815 -1048,-1588 -1702,-1972 36,403 328,1406 515,1698l1237 825z"/>
  <path class="fil10" d="M30844 21064c81,-66 8,88 123,-141 88,-173 60,-88 62,-266 60,-312 130,-492 174,-803 41,-291 28,-597 87,-850 -650,253 -1207,1204 -1227,1935 120,-185 204,-231 337,-437 81,-126 188,-308 276,-468 -27,180 -84,338 -160,510 -112,248 -110,194 -244,414 -182,298 -311,574 -247,995l590 -648c169,-225 -13,-86 229,-241z"/>
  <path class="fil10" d="M10478 4220c247,58 4,64 283,-7 55,-14 178,-73 251,-113 171,-93 312,-185 424,-318 -119,-224 -893,-421 -1112,-445 -486,-53 -1018,2 -1136,445 355,-52 642,-37 914,93 -353,114 -757,-50 -1053,198 76,542 1046,285 1429,147z"/>
  <path class="fil10" d="M22625 1857l-146 -133c-307,-57 -7,24 -235,-110 -18,-10 -34,-22 -52,-33l-184 -111c78,549 260,1857 719,2212 103,79 52,89 201,112l-222 -873c277,439 376,955 811,1214 -122,-537 -68,-960 -297,-1382 -325,-601 -654,-747 -595,-896z"/>
  <path class="fil10" d="M2404 31691l-146 -51c-13,22 -30,55 -37,67l-49 113c312,806 507,1146 1071,1522 130,87 7,16 125,83 113,64 252,125 385,146 898,145 -88,-654 -90,-656 15,-263 -140,-1 100,-123l35 12c2,-264 20,-393 -152,-508 -421,-281 -1218,-328 -1318,-488 -58,-92 29,-104 76,-117z"/>
  <path class="fil10" d="M1691 16184l25 -593c157,117 -2,64 222,85 253,-713 -1187,-1891 -1149,-2317 -127,474 -195,1299 20,1760l882 1065z"/>
  <path class="fil10" d="M1677 25706c199,-649 -776,-931 -788,-1457 322,93 399,363 692,532 -136,-512 -799,-1047 -1229,-1411 -159,-135 -64,-122 -272,-143 173,272 255,2566 1597,2479z"/>
  <path class="fil10" d="M4681 12438c45,-91 81,-206 123,-303 -206,-113 -1008,407 -1226,535 -344,200 -860,796 -847,1187 45,-306 276,-372 546,-441 -216,533 -490,562 -650,1155l262 -203c11,-10 26,-26 36,-37 622,-623 1150,-726 1548,-1647 165,-383 90,-318 208,-246z"/>
  <path class="fil10" d="M25389 35876c312,-329 103,-1107 193,-1569 -34,255 54,911 171,1106 423,-595 230,-1941 -43,-2576 -110,402 -1020,1479 -321,3039z"/>
  <path class="fil11" d="M24952 39065c-64,-60 -23,-37 -128,-95 -289,-159 -997,-347 -1326,-347l0 -218 -73 289c-417,-58 -667,18 -776,95l-314 338c396,-62 940,-80 1334,5 -502,153 -872,8 -1482,217 58,89 103,166 264,210l1192 15c493,-124 882,-353 1309,-509z"/>
  <path class="fil10" d="M25080 36805c15,12 40,7 48,30l215 94c122,38 249,54 359,72l-115 49c-632,155 -931,-149 -824,425 486,104 935,164 1427,28 332,-92 745,-206 990,-449 67,-67 47,-52 109,-128 -710,-97 -1693,-653 -2209,-121z"/>
  <path class="fil10" d="M29772 23609c76,-457 -74,-309 -280,-725 -50,-101 -250,-620 -175,-748 101,259 313,621 584,703 -42,-748 -212,-1297 -835,-1712 -14,-8 -32,-19 -45,-28l-428 -290c120,2112 960,2411 1179,2800z"/>
  <path class="fil10" d="M1523 21127c41,-551 -428,-892 -618,-1258 210,25 501,238 660,399 -91,-434 -55,-284 -307,-577l-410 -455c-545,-483 -325,-533 -642,-921 -65,1072 -61,1767 670,2342 261,206 251,316 647,470z"/>
  <path class="fil10" d="M29738 18893c-95,-352 -624,-766 -762,-1122 125,95 186,158 298,239 126,90 256,145 353,228 109,-737 -504,-1091 -995,-1412 -267,-174 -221,-213 -564,-366 148,1635 646,1624 1670,2433z"/>
  <path class="fil10" d="M26749 9825c170,-97 422,-50 628,-5 -92,-312 -54,-451 -759,-580 -339,-61 -874,-114 -1193,-142 577,1877 3688,1386 1324,727z"/>
  <path class="fil11" d="M7630 40029l583 271c561,256 922,163 1395,-94 202,-108 367,-174 425,-459 -1105,28 -751,224 -1093,207 -132,-7 -70,-2 -142,-45 290,-183 542,-264 871,-408 -230,-271 -817,-179 -1082,-70 -377,157 -847,343 -957,598z"/>
  <path class="fil10" d="M28258 30939c205,-218 235,-306 635,-429 -272,366 -674,731 -836,1205 1091,60 1639,-1203 1953,-2092 -363,212 -711,365 -1078,552l-461 257c-129,110 -249,309 -213,507z"/>
  <path class="fil10" d="M1932 24993c228,-220 239,-659 506,-831 -120,444 -442,957 -324,1349 232,-53 178,-32 406,-505 661,-1373 426,-931 585,-2239 -189,-27 -34,-59 -219,112 -412,382 -1288,1533 -954,2114z"/>
  <path class="fil10" d="M4441 35859l70 0 -114 97c-12,9 -58,42 -81,49 391,308 1044,1127 1533,1238 303,69 549,7 847,-1 7,-199 -171,-269 -716,-449 10,-26 27,-52 38,-74l114 -251c69,-287 -390,-577 -1035,-531 -385,27 -465,50 -656,-78z"/>
  <path class="fil10" d="M1775 18463c286,-218 454,-577 629,-833 73,120 -74,402 -163,609 -95,225 -195,449 -267,727 770,-829 1159,-1648 1354,-3015l-551 505c-580,761 -798,831 -1002,2007z"/>
  <path class="fil10" d="M19597 2618l45 73 -925 328c102,107 22,42 161,143 52,38 87,61 147,92l923 375c658,190 956,-53 1427,-333 -296,-122 -747,-117 -1128,-133l835 -165c-551,-344 -934,-155 -1356,-312l-129 -68z"/>
  <path class="fil11" d="M8934 41040c481,115 766,535 1453,235 511,-223 729,-460 1191,-615 -190,-197 -475,-284 -765,-161 -173,73 -282,154 -437,224 -177,80 -318,101 -467,158 53,-462 565,-250 866,-730 -367,-78 -1727,548 -1841,889z"/>
  <path class="fil10" d="M21728 39242c283,-174 259,-415 422,-864 100,-276 408,-685 440,-807l-362 1266c575,-373 400,-186 683,-999 161,-467 282,-994 334,-1508 -678,397 -1755,2252 -1517,2912z"/>
  <path class="fil10" d="M26916 8225l134 -1008c214,516 -174,456 253,1498 344,-945 282,-2136 -192,-3023 -90,205 -357,1014 -387,1187 -39,222 -82,537 -58,761l155 468c77,120 36,61 95,117z"/>
  <path class="fil10" d="M30780 25260c124,-429 163,-802 277,-1179 -363,219 -1476,1103 -1333,1861 390,-57 49,-184 235,-108 45,138 -498,635 -351,968 257,-81 74,-80 659,-680 242,-249 352,-567 513,-862z"/>
  <path class="fil10" d="M29306 26972c136,-273 -160,-782 -229,-1156 235,160 190,234 353,380 33,-567 -116,-744 -348,-1162l-584 -1012c-156,234 -119,639 -104,915 38,687 512,1792 912,2035z"/>
  <path class="fil10" d="M9604 4655c-282,-23 -188,-65 -508,-73 46,-54 59,-177 73,-217l-219 -6c-70,124 -19,102 -72,-43 -5,9 -385,-16 135,295 -630,-61 -704,-190 -994,394 184,30 576,6 713,87 -242,65 -359,87 -601,102 -381,24 -471,-24 -530,334l331 100c931,58 1830,-665 2033,-706 -22,-18 -60,-61 -74,-42 -2,3 -254,-109 -287,-225z"/>
  <path class="fil10" d="M10332 2620c203,-41 476,-830 465,-975l-28 540c438,-312 880,-1451 1013,-1961 -505,136 -1031,443 -1215,809 -149,294 -330,1293 -235,1587z"/>
  <path class="fil10" d="M22116 4874l0 233 161 21c434,820 1515,666 2293,639l-1060 -419 581 -18c-101,-133 -13,-310 -534,-382 -306,-42 -578,41 -869,54 165,-5 252,-48 449,-87 451,-89 366,-91 506,-259 -670,0 -998,217 -1527,218z"/>
  <path class="fil10" d="M27062 12836l124 206c21,45 45,119 61,165 195,542 298,650 842,973 101,59 170,110 271,162 230,121 343,136 612,151 -201,-8 -6,-59 -110,-241 -98,-172 -674,-538 -823,-638 367,9 283,211 726,272 -50,-578 -126,-604 -653,-818l-1049 -266 -1 34z"/>
  <path class="fil10" d="M3405 7783c-85,170 -66,38 -28,291 -39,960 -90,971 180,1890 151,-145 200,-169 222,-436 9,-112 -23,-373 -33,-504 62,87 69,156 106,206 110,153 -4,66 152,142 412,-829 29,-1505 -281,-2166 -380,810 -206,727 -318,577z"/>
  <path class="fil11" d="M30553 26564l-786 657c-182,231 -509,409 -472,815l685 -501c-12,17 -28,38 -36,49 -9,12 -26,35 -36,49 -10,13 -25,33 -36,47l-136 171c-350,434 -522,528 -574,880 103,-152 562,-276 1160,-956 243,-277 270,-364 419,-742 7,-17 14,-36 20,-53 174,-454 283,-497 335,-772 -697,285 -529,189 -543,356z"/>
  <path class="fil10" d="M28517 11809l267 -419c52,-139 109,-319 146,-467 -14,600 -271,950 -50,1539 565,-630 367,-2053 298,-3016 -359,540 -640,982 -742,1688l-2 525c35,98 55,109 83,150z"/>
  <path class="fil10" d="M1898 22662l260 -237c10,-11 26,-31 41,-46 -114,536 -301,631 -325,1298 378,-192 708,-824 849,-1240 59,-175 158,-593 201,-818 93,-480 156,-616 27,-823l-659 841c-223,331 -420,525 -394,1025z"/>
  <path class="fil10" d="M2035 21385l224 -219 0 -44c-148,-124 -182,153 24,-281 130,-272 796,-796 916,-2361l-340 309c-32,34 -89,109 -99,120 -190,211 -271,156 -441,427 -52,83 -34,68 -77,141l-234 409c-83,180 -187,432 -135,699 -9,-208 450,-672 599,-879 -146,626 -507,780 -626,1533l133 98c11,9 36,33 56,48z"/>
  <path class="fil10" d="M25711 35771c503,-142 837,-363 1099,-163 -487,79 -1315,499 -1494,833 565,-38 952,-215 1412,-416 331,-144 927,-614 1028,-893l-124 -48c-476,-118 321,41 -133,-33 -293,-47 -746,19 -1001,103 -296,98 -705,258 -787,617z"/>
  <path class="fil10" d="M27135 32897c146,-330 113,-472 31,-861 -150,-716 -86,-947 -171,-760 151,87 84,95 253,545 77,208 166,422 216,661 326,-893 -41,-1088 -343,-2290l-171 -424c-85,1054 -560,2173 185,3129z"/>
  <path class="fil10" d="M28444 7784l-35 -74c-169,75 55,224 -223,-121 -206,615 -846,1583 -491,2215l273 -964c88,618 -355,1242 39,1635 156,-326 363,-764 419,-1179 97,-736 -160,-1170 18,-1512z"/>
  <path class="fil10" d="M295 17456l27 292 2 -344c53,62 788,1719 1237,1763 45,-314 -457,-667 -472,-1114 224,198 278,389 551,457 78,-592 -791,-1353 -932,-1619 -107,-201 -127,-361 -350,-535l64 815c-73,331 30,107 -127,285z"/>
  <path class="fil10" d="M3525 11877c238,-176 747,-418 1008,-584 122,-77 357,-265 454,-348 204,-176 242,-300 409,-495 -852,151 -2040,205 -2251,1174 25,-11 59,-55 73,-35 15,19 52,-25 71,-35 240,-130 587,-406 838,-375 -292,148 -405,247 -670,416 -294,187 -368,217 -464,601 385,-160 90,-201 532,-319z"/>
  <path class="fil10" d="M26373 11056c194,-59 -90,-211 130,58l228 498c145,238 246,422 393,543l1190 455c158,9 49,18 152,-27 -181,-205 -254,-86 -660,-447 -12,-10 -30,-26 -40,-36l220 -200 -174 -195c-47,-75 25,-176 -402,-410 -310,-170 -672,-305 -928,-530 -31,-53 231,-120 -88,-39 -103,26 -17,-81 -71,54 -39,98 -7,128 50,276z"/>
  <path class="fil11" d="M10202 39458c-102,-330 -20,-41 -178,-324 -125,-224 -205,-569 -347,-657 352,182 794,992 1092,1134 246,-550 -909,-1765 -1673,-2197 214,761 459,1767 1106,2044z"/>
  <path class="fil10" d="M25727 7154l-1051 -372 814 56c-247,-642 -2081,-606 -2217,-638 363,337 569,633 938,787l1036 274c418,41 416,-57 480,-107z"/>
  <path class="fil10" d="M29483 20129c-110,-158 -456,-855 -878,-1053 -48,1209 31,1686 934,2168 -81,-176 -109,-243 -183,-411 -75,-171 -121,-233 -198,-434 280,237 241,363 522,502 -7,-363 -43,-481 -197,-772z"/>
  <path class="fil12" d="M14846 6971c-250,260 -349,175 -557,476 -192,279 -232,386 -248,694 239,-25 1128,-378 1462,-649 16,-13 61,-50 76,-61 164,-114 -13,12 110,-60l155 -113c-162,-461 -512,-443 -998,-287z"/>
  <path class="fil10" d="M2175 16158c111,0 288,-211 453,-374 125,-123 1202,-856 1299,-1499 -305,361 252,-170 -109,86l-447 284c-219,122 -440,234 -597,341 -354,240 -955,696 -599,1162z"/>
  <path class="fil11" d="M10842 38675l0 195 116 -226c88,801 33,1474 703,1731 -397,-715 -140,-479 -46,-588 33,348 265,577 476,655 -212,-136 -212,-611 -417,-1083 -75,-173 -133,-353 -231,-529 -205,-365 -147,-151 -456,-415l-145 260z"/>
  <polygon class="fil13" points="4804,11856 4877,11856 4817,11771 "/>
  <path class="fil14 str0" d="M18028 44967c-342,-195 -201,70 -413,-431 -327,-774 -983,-2183 -1590,-2724 -377,-336 831,-541 939,-1417 77,-621 -621,-333 -979,-381 -6,-1 -820,310 -1141,170 -510,-221 -1196,204 -7,1037 267,187 810,535 333,854 -279,187 -1214,1994 -1533,2447 -25,35 -44,133 -99,146"/>
  <path class="fil14 str0" d="M15660 41103c41,465 82,613 82,1115"/>
 </g>
</svg>
